<svg width="24" height="30" viewBox="0 0 24 30" fill="none" xmlns="http://www.w3.org/2000/svg">
<path d="M18.75 8V10.1C18.31 10.04 17.81 10.01 17.25 10V8C17.25 4.85 16.36 2.75 12 2.75C7.64 2.75 6.75 4.85 6.75 8V10C6.19 10.01 5.69 10.04 5.25 10.1V8C5.25 5.1 5.95 1.25 12 1.25C18.05 1.25 18.75 5.1 18.75 8Z" fill="#808080"/>
<path opacity="0.4" d="M22 18.3333V21.6667C22 28.3333 21 30 17 30H7C3 30 2 28.3333 2 21.6667V18.3333C2 12.7667 2.7 10.6833 5.25 10.1667C5.69 10.0667 6.19 10.0167 6.75 10H17.25C17.81 10.0167 18.31 10.0667 18.75 10.1667C21.3 10.6833 22 12.7667 22 18.3333Z" fill="#808080"/>
</svg>
