<svg width="48" height="48" viewBox="0 0 48 48" fill="none" xmlns="http://www.w3.org/2000/svg">
<path opacity="0.4" d="M15.8601 10.9599L22.1201 17.2199C23.1601 18.2599 24.8601 18.2599 25.9001 17.2199L32.1602 10.9599C33.8402 9.27988 32.6601 6.37988 30.2601 6.37988H17.7401C15.3601 6.37988 14.1601 9.27988 15.8601 10.9599Z" fill="#4285F4"/>
<path opacity="0.4" d="M15.8601 37.04L22.1201 30.78C23.1601 29.74 24.8601 29.74 25.9001 30.78L32.1602 37.04C33.8402 38.72 32.6601 41.62 30.2601 41.62H17.7401C15.3601 41.62 14.1601 38.72 15.8601 37.04Z" fill="#4285F4"/>
<path d="M4.31988 22.8599L8.89996 15.6599C9.61996 14.5199 11.22 14.3399 12.18 15.2999L19.3799 22.4999C20.1999 23.3199 20.1999 24.6599 19.3799 25.4799L12.18 32.6799C11.22 33.6399 9.63996 33.4599 8.89996 32.3199L4.31988 25.1199C3.89988 24.4399 3.89988 23.5599 4.31988 22.8599Z" fill="#4285F4"/>
<path d="M43.6799 22.8599L39.0999 15.6599C38.3799 14.5199 36.7798 14.3399 35.8198 15.2999L28.6199 22.4999C27.7999 23.3199 27.7999 24.6599 28.6199 25.4799L35.8198 32.6799C36.7798 33.6399 38.3599 33.4599 39.0999 32.3199L43.6799 25.1199C44.0999 24.4399 44.0999 23.5599 43.6799 22.8599Z" fill="#4285F4"/>
</svg>
