<svg width="108" height="27" viewBox="0 0 108 27" fill="none" xmlns="http://www.w3.org/2000/svg">
<path d="M0.838504 26V0.857142H7.95687V20.3673H19.9405V26H0.838504ZM35.4383 26.5061C32.7498 26.5061 30.3498 25.9401 28.2383 24.8082C26.1376 23.6762 24.4832 22.1252 23.275 20.1551C22.0669 18.185 21.4628 15.9429 21.4628 13.4286C21.4628 10.9143 22.0669 8.67211 23.275 6.70204C24.4832 4.73197 26.1376 3.18095 28.2383 2.04898C30.3498 0.917006 32.7498 0.35102 35.4383 0.35102C38.1158 0.35102 40.5049 0.917006 42.6056 2.04898C44.7172 3.18095 46.3771 4.73197 47.5852 6.70204C48.7934 8.67211 49.3975 10.9143 49.3975 13.4286C49.3975 15.9429 48.7934 18.185 47.5852 20.1551C46.3771 22.1252 44.7172 23.6762 42.6056 24.8082C40.5049 25.9401 38.1158 26.5061 35.4383 26.5061ZM35.4383 20.6122C36.7009 20.6122 37.8437 20.3184 38.8669 19.7306C39.9009 19.132 40.7172 18.2939 41.3158 17.2163C41.9145 16.1388 42.2138 14.8762 42.2138 13.4286C42.2138 11.981 41.9145 10.7184 41.3158 9.64082C40.7172 8.56327 39.9009 7.73061 38.8669 7.14286C37.8437 6.54422 36.7009 6.2449 35.4383 6.2449C34.1648 6.2449 33.0165 6.54422 31.9934 7.14286C30.9703 7.73061 30.1539 8.56327 29.5444 9.64082C28.9458 10.7184 28.6464 11.981 28.6464 13.4286C28.6464 14.8762 28.9458 16.1388 29.5444 17.2163C30.1539 18.2939 30.9703 19.132 31.9934 19.7306C33.0165 20.3184 34.1648 20.6122 35.4383 20.6122ZM69.9922 19.7796V12.8898H76.2779V23.3061C74.7867 24.351 73.1105 25.1456 71.2493 25.6898C69.3881 26.234 67.5432 26.5061 65.7146 26.5061C63.048 26.5061 60.6697 25.951 58.5799 24.8408C56.4901 23.7197 54.8466 22.1741 53.6493 20.2041C52.452 18.234 51.8534 15.9755 51.8534 13.4286C51.8534 10.8816 52.452 8.62313 53.6493 6.65306C54.8575 4.68299 56.5119 3.14286 58.6126 2.03265C60.7241 0.911564 63.1405 0.35102 65.8616 0.35102C70.5636 0.35102 74.2262 1.88571 76.8493 4.9551L72.3269 9.05306C70.6616 7.18095 68.6262 6.2449 66.2207 6.2449C64.0656 6.2449 62.3296 6.89796 61.0126 8.20408C59.6956 9.5102 59.0371 11.2517 59.0371 13.4286C59.0371 15.551 59.6901 17.2816 60.9963 18.6204C62.3133 19.9483 64.0275 20.6122 66.1391 20.6122C67.4779 20.6122 68.7622 20.3347 69.9922 19.7796ZM93.4852 26.5061C90.7967 26.5061 88.3967 25.9401 86.2852 24.8082C84.1845 23.6762 82.5301 22.1252 81.3219 20.1551C80.1137 18.185 79.5096 15.9429 79.5096 13.4286C79.5096 10.9143 80.1137 8.67211 81.3219 6.70204C82.5301 4.73197 84.1845 3.18095 86.2852 2.04898C88.3967 0.917006 90.7967 0.35102 93.4852 0.35102C96.1627 0.35102 98.5518 0.917006 100.653 2.04898C102.764 3.18095 104.424 4.73197 105.632 6.70204C106.84 8.67211 107.444 10.9143 107.444 13.4286C107.444 15.9429 106.84 18.185 105.632 20.1551C104.424 22.1252 102.764 23.6762 100.653 24.8082C98.5518 25.9401 96.1627 26.5061 93.4852 26.5061ZM93.4852 20.6122C94.7477 20.6122 95.8906 20.3184 96.9137 19.7306C97.9477 19.132 98.7641 18.2939 99.3627 17.2163C99.9613 16.1388 100.261 14.8762 100.261 13.4286C100.261 11.981 99.9613 10.7184 99.3627 9.64082C98.7641 8.56327 97.9477 7.73061 96.9137 7.14286C95.8906 6.54422 94.7477 6.2449 93.4852 6.2449C92.2117 6.2449 91.0634 6.54422 90.0403 7.14286C89.0171 7.73061 88.2008 8.56327 87.5913 9.64082C86.9926 10.7184 86.6933 11.981 86.6933 13.4286C86.6933 14.8762 86.9926 16.1388 87.5913 17.2163C88.2008 18.2939 89.0171 19.132 90.0403 19.7306C91.0634 20.3184 92.2117 20.6122 93.4852 20.6122Z" fill="white"/>
</svg>
